# xmcd
#
# Track frame offsets:
#   150
#   16470
#   35567
#   54710
#   75217
#   90875
#   111480
#   124852
#   145505
#   162841
#   180300
#   200760
#
# Disc length: 2970 seconds
#
# Revision: 0
# Processed by: cddbd v1.5.2PL0 Copyright (c) Steve Scherf et al.
# Submitted via: GXTranscoder 2.0.1939
#
DISCID=930b980c
DTITLE=Pascale Picard - me,myself&us
DYEAR=2008
DGENRE=Blues
TTITLE0=thinking of it
TTITLE1=gate 22
TTITLE2=smilin'!!
TTITLE3=unconscious liars
TTITLE4=that is the matter
TTITLE5=annoying
TTITLE6=let ' s have a drink
TTITLE7=sorry
TTITLE8=a while
TTITLE9=when at the end of the road
TTITLE10=useless
TTITLE11=half asleep
EXTD=
EXTT0=
EXTT1=
EXTT2=
EXTT3=
EXTT4=
EXTT5=
EXTT6=
EXTT7=
EXTT8=
EXTT9=
EXTT10=
EXTT11=
PLAYORDER=
